<?xml version="1.0" encoding="UTF-8" standalone="no"?>
<!DOCTYPE svg PUBLIC "-//W3C//DTD SVG 1.1//EN"
 "http://www.w3.org/Graphics/SVG/1.1/DTD/svg11.dtd">
<!-- Generated by graphviz version 2.43.0 (0)
 -->
<!-- Title: %3 Pages: 1 -->
<svg width="660pt" height="119pt"
 viewBox="0.00 0.00 660.00 119.00" xmlns="http://www.w3.org/2000/svg" xmlns:xlink="http://www.w3.org/1999/xlink">
<g id="graph0" class="graph" transform="scale(1 1) rotate(0) translate(4 115)">
<title>%3</title>
<polygon fill="white" stroke="transparent" points="-4,4 -4,-115 656,-115 656,4 -4,4"/>
<!-- x1 -->
<g id="node1" class="node">
<title>x1</title>
<text text-anchor="middle" x="27" y="-89.3" font-family="Times,serif" font-size="14.00">x1</text>
</g>
<!-- f3 -->
<g id="node4" class="node">
<title>f3</title>
<ellipse fill="none" stroke="black" cx="118" cy="-64" rx="27" ry="18"/>
<text text-anchor="middle" x="118" y="-60.3" font-family="Times,serif" font-size="14.00">f3</text>
</g>
<!-- x1&#45;&gt;f3 -->
<g id="edge1" class="edge">
<title>x1&#45;&gt;f3</title>
<path fill="none" stroke="black" d="M54.22,-84.46C63.43,-81.46 73.9,-78.04 83.62,-74.88"/>
<polygon fill="black" stroke="black" points="84.97,-78.12 93.39,-71.69 82.8,-71.46 84.97,-78.12"/>
</g>
<!-- f5 -->
<g id="node5" class="node">
<title>f5</title>
<ellipse fill="none" stroke="black" cx="326" cy="-93" rx="27" ry="18"/>
<text text-anchor="middle" x="326" y="-89.3" font-family="Times,serif" font-size="14.00">f5</text>
</g>
<!-- x1&#45;&gt;f5 -->
<g id="edge2" class="edge">
<title>x1&#45;&gt;f5</title>
<path fill="none" stroke="black" d="M54.17,-93.29C98.14,-93.76 189.61,-94.68 267,-95 273.22,-95.03 274.78,-95.14 281,-95 283.54,-94.94 286.17,-94.87 288.81,-94.78"/>
<polygon fill="black" stroke="black" points="289.09,-98.27 298.95,-94.38 288.82,-91.27 289.09,-98.27"/>
</g>
<!-- x2 -->
<g id="node2" class="node">
<title>x2</title>
<text text-anchor="middle" x="27" y="-14.3" font-family="Times,serif" font-size="14.00">x2</text>
</g>
<!-- f4 -->
<g id="node6" class="node">
<title>f4</title>
<ellipse fill="none" stroke="black" cx="222" cy="-55" rx="27" ry="18"/>
<text text-anchor="middle" x="222" y="-51.3" font-family="Times,serif" font-size="14.00">f4</text>
</g>
<!-- x2&#45;&gt;f4 -->
<g id="edge3" class="edge">
<title>x2&#45;&gt;f4</title>
<path fill="none" stroke="black" d="M54.12,-21.69C77.89,-25.19 113.92,-30.8 145,-37 158.64,-39.72 173.55,-43.15 186.53,-46.28"/>
<polygon fill="black" stroke="black" points="185.91,-49.74 196.45,-48.72 187.57,-42.94 185.91,-49.74"/>
</g>
<!-- x7 -->
<g id="node3" class="node">
<title>x7</title>
<text text-anchor="middle" x="625" y="-59.3" font-family="Times,serif" font-size="14.00">x7 = o</text>
</g>
<!-- f3&#45;&gt;f4 -->
<g id="edge4" class="edge">
<title>f3&#45;&gt;f4</title>
<path fill="none" stroke="black" d="M145,-61.71C157.11,-60.64 171.72,-59.35 184.88,-58.19"/>
<polygon fill="black" stroke="black" points="185.39,-61.66 195.04,-57.29 184.78,-54.68 185.39,-61.66"/>
<text text-anchor="middle" x="170" y="-63.8" font-family="Times,serif" font-size="14.00">x3</text>
</g>
<!-- f6 -->
<g id="node8" class="node">
<title>f6</title>
<ellipse fill="none" stroke="black" cx="430" cy="-93" rx="27" ry="18"/>
<text text-anchor="middle" x="430" y="-89.3" font-family="Times,serif" font-size="14.00">f6</text>
</g>
<!-- f5&#45;&gt;f6 -->
<g id="edge7" class="edge">
<title>f5&#45;&gt;f6</title>
<path fill="none" stroke="black" d="M353,-93C365.02,-93 379.49,-93 392.57,-93"/>
<polygon fill="black" stroke="black" points="392.69,-96.5 402.69,-93 392.69,-89.5 392.69,-96.5"/>
<text text-anchor="middle" x="378" y="-96.8" font-family="Times,serif" font-size="14.00">x5</text>
</g>
<!-- f4&#45;&gt;f5 -->
<g id="edge5" class="edge">
<title>f4&#45;&gt;f5</title>
<path fill="none" stroke="black" d="M245.89,-63.53C259.67,-68.66 277.43,-75.28 292.63,-80.94"/>
<polygon fill="black" stroke="black" points="291.59,-84.29 302.19,-84.5 294.04,-77.73 291.59,-84.29"/>
<text text-anchor="middle" x="274" y="-79.8" font-family="Times,serif" font-size="14.00">x4</text>
</g>
<!-- f7 -->
<g id="node7" class="node">
<title>f7</title>
<ellipse fill="none" stroke="black" cx="534" cy="-63" rx="27" ry="18"/>
<text text-anchor="middle" x="534" y="-59.3" font-family="Times,serif" font-size="14.00">f7</text>
</g>
<!-- f4&#45;&gt;f7 -->
<g id="edge6" class="edge">
<title>f4&#45;&gt;f7</title>
<path fill="none" stroke="black" d="M249.16,-55.68C304.5,-57.1 433.48,-60.43 496.73,-62.06"/>
<polygon fill="black" stroke="black" points="496.93,-65.57 507.02,-62.33 497.11,-58.57 496.93,-65.57"/>
<text text-anchor="middle" x="378" y="-62.8" font-family="Times,serif" font-size="14.00">x4</text>
</g>
<!-- f7&#45;&gt;x7 -->
<g id="edge9" class="edge">
<title>f7&#45;&gt;x7</title>
<path fill="none" stroke="black" d="M561.22,-63C569.55,-63 578.91,-63 587.82,-63"/>
<polygon fill="black" stroke="black" points="587.97,-66.5 597.97,-63 587.97,-59.5 587.97,-66.5"/>
</g>
<!-- f6&#45;&gt;f7 -->
<g id="edge8" class="edge">
<title>f6&#45;&gt;f7</title>
<path fill="none" stroke="black" d="M454.91,-85.97C468.12,-82.08 484.74,-77.2 499.24,-72.93"/>
<polygon fill="black" stroke="black" points="500.28,-76.27 508.88,-70.09 498.3,-69.56 500.28,-76.27"/>
<text text-anchor="middle" x="482" y="-82.8" font-family="Times,serif" font-size="14.00">x6</text>
</g>
</g>
</svg>
